<svg xmlns="http://www.w3.org/2000/svg" width="3in" height="3in" viewBox="0 0 216 216">
  <defs>
    <style>
      .cls-1 {
        fill: #f19f4d;
      }
    </style>
  </defs>
  <g id="Layer_2" data-name="Layer 2">
    <g>
      <path class="cls-1" d="M144.75,68.1H71.25A10.59,10.59,0,0,0,60.67,78.68v58.64A10.59,10.59,0,0,0,71.25,147.9h73.5a10.59,10.59,0,0,0,10.58-10.58V78.68A10.59,10.59,0,0,0,144.75,68.1Zm4.63,69.22a4.63,4.63,0,0,1-4.63,4.63H71.25a4.64,4.64,0,0,1-4.64-4.63V78.68a4.64,4.64,0,0,1,4.64-4.63h73.5a4.64,4.64,0,0,1,4.64,4.63v58.64Z"/>
      <circle class="cls-1" cx="74.3" cy="81.58" r="3.1"/>
      <circle class="cls-1" cx="83.39" cy="81.58" r="3.1"/>
      <circle class="cls-1" cx="92.48" cy="81.58" r="3.1"/>
      <path class="cls-1" d="M102.35,122.71a4.61,4.61,0,0,1-6.52-6.52l5-5a4.61,4.61,0,0,1,6.52,0,3,3,0,1,0,4.21-4.2,10.56,10.56,0,0,0-14.94,0l-5,5a10.56,10.56,0,0,0,14.93,14.93,3,3,0,0,0-4.21-4.2Z"/>
      <path class="cls-1" d="M109.44,98.79a3,3,0,0,0,4.21,4.2,4.62,4.62,0,0,1,7.87,3.26,4.57,4.57,0,0,1-1.35,3.26l-5,5a4.61,4.61,0,0,1-6.52,0,3,3,0,1,0-4.21,4.21,10.57,10.57,0,0,0,14.94,0l5-5a10.47,10.47,0,0,0,3.09-7.47,10.57,10.57,0,0,0-18-7.46Z"/>
    </g>
  </g>
</svg>
