<svg xmlns="http://www.w3.org/2000/svg" width="3in" height="3in" viewBox="0 0 216 216">
  <defs>
    <style>
      .cls-1 {
        fill: #f19f4d;
      }
    </style>
  </defs>
  <g id="Layer_4" data-name="Layer 4">
    <g>
      <path class="cls-1" d="M57.8,132.81c-.32-3.73-.45-7.49-1-11.19-1.65-11.49-3.45-23-5.2-34.43,0-.18,0-.36-.06-.76l8.8-3.24c.18,10.52-.6,20.84,1,30.67,4.5.61,8.69.93,12.76,1.8a28,28,0,0,1,7.43,3c2.54,1.41,3.06,3.82,1.16,6A18.26,18.26,0,0,1,77,129c-4.91,2.38-10.3,3-15.7,3.45-.8.07-1.59.22-2.39.34ZM74.15,122.7l-8.57-3.37,1.28,8.7Z"/>
      <path class="cls-1" d="M114.7,132.81a269.07,269.07,0,0,0-5.83-44.34c-.34-1.55-.06-2.23,1.49-2.69,2.33-.69,4.59-1.63,7-2.52,0,4.88-.12,9.56,0,14.23.16,5,.6,10,.87,15,.08,1.58.73,2.07,2.36,2A34.88,34.88,0,0,1,135.54,117a18.12,18.12,0,0,1,3,1.53c2.53,1.62,3.22,4.16,1.19,6.33a16,16,0,0,1-6.33,4.42c-4.62,1.46-9.49,2.16-14.25,3.17-.73.15-1.46.24-2.2.36Zm9.2-4.77,7.37-5.38-8.58-3.31Z"/>
      <path class="cls-1" d="M164.45,129.81l-4.75.33c-.63-6.87-1.25-13.6-1.87-20.44.73-.11,1.21-.23,1.69-.25,1.24-.06,2.72-.5,3.67,0,.76.42.86,2,1.26,3.08Z"/>
      <path class="cls-1" d="M89.65,89.51A2.59,2.59,0,0,1,90,89.3c5.49-1.11,5.55-1,6,4.36q1.17,15.32,2.41,30.62c.06.86.09,1.73.13,2.69-.5.09-.92.22-1.33.25-2.56.15-2.48.1-2.81-2.46-1.47-11.26-3-22.51-4.51-33.76C89.8,90.51,89.73,90,89.65,89.51Z"/>
      <path class="cls-1" d="M146.76,89.51a2.2,2.2,0,0,1,.42-.25c5.41-1.11,5.59-.89,6,4.5.73,10.65,1.58,21.3,2.38,31.95,0,.36,0,.73.08,1.37-.79,0-1.51.09-2.22.15-1.19.1-1.73-.25-1.88-1.62q-1.32-12.37-2.89-24.74C148.12,97.05,147.38,93.27,146.76,89.51Z"/>
      <path class="cls-1" d="M140.22,109.14c1.82-.28,3.29-.52,4.77-.73.95-.15,1.6.18,1.71,1.21.69,6.31,1.38,12.62,2.09,19l-4.7.73C142.82,122.72,141.55,116.09,140.22,109.14Z"/>
      <path class="cls-1" d="M83.19,109.32c6-1.77,6.35-1.54,7,4.1.48,4.54.78,9.09,1.3,13.62.16,1.4-.16,2-1.56,2-.87,0-1.73.2-2.88.34C85.73,122.69,84.47,116.05,83.19,109.32Z"/>
      <path class="cls-1" d="M107.21,129.86l-4.6.28c-.64-6.88-1.26-13.62-1.88-20.3a4.66,4.66,0,0,1,.77-.3c5.64-.82,5.66-.82,5.71,4.79C107.24,119.44,107.21,124.55,107.21,129.86Z"/>
      <path class="cls-1" d="M106.62,106.71l-2.67-.22V98.73l2.67.22Z"/>
      <path class="cls-1" d="M143.1,105.63l-.87-7.51,3-.15.69,7.66Z"/>
      <path class="cls-1" d="M88.78,105.73H86.05l-.82-7.51c2.94-.45,2.93-.44,3.13,2.2C88.49,102.14,88.63,103.86,88.78,105.73Z"/>
      <path class="cls-1" d="M163.67,106.74l-2.65-.26V98.79l2.65.13Z"/>
      <path class="cls-1" d="M141,98.23l1.17,7.71-2.27.4c-.53-2.48-1-4.87-1.59-7.41Z"/>
      <path class="cls-1" d="M81.23,98.89l2.66-.63L85.05,106l-2.31.26Z"/>
      <path class="cls-1" d="M102.86,106.57l-2.29.15-.73-7.29c2.5-1,2.67-.84,2.76,1.51C102.67,102.73,102.77,104.52,102.86,106.57Z"/>
      <path class="cls-1" d="M156.81,99.22l2.71-.37c.16,2.56.32,5,.49,7.63l-2.29.32Z"/>
    </g>
  </g>
</svg>
