<svg xmlns="http://www.w3.org/2000/svg" width="3in" height="4in" viewBox="0 0 216 288">
  <defs>
    <style>
      .cls-1 {
        fill: #f9f9f9;
      }

      .cls-2 {
        fill: #b5b5b5;
      }
    </style>
  </defs>
  <g id="Layer_2" data-name="Layer 2">
    <rect class="cls-1" width="216" height="288"/>
    <g>
      <path class="cls-2" d="M159.09,88.54H56.91a14.72,14.72,0,0,0-14.7,14.7v81.52a14.72,14.72,0,0,0,14.7,14.7H159.09a14.72,14.72,0,0,0,14.7-14.7V103.24a14.72,14.72,0,0,0-14.7-14.7Zm6.43,96.22a6.43,6.43,0,0,1-6.43,6.43H56.91a6.43,6.43,0,0,1-6.43-6.43V103.24a6.43,6.43,0,0,1,6.43-6.43H159.09a6.43,6.43,0,0,1,6.43,6.43v81.52Z"/>
      <circle class="cls-2" cx="61.16" cy="107.28" r="4.31"/>
      <circle class="cls-2" cx="73.79" cy="107.28" r="4.31"/>
      <circle class="cls-2" cx="86.43" cy="107.28" r="4.31"/>
      <path class="cls-2" d="M100.15,164.45a6.41,6.41,0,1,1-9.06-9.07l7-7a6.41,6.41,0,0,1,9.06,0,4.13,4.13,0,0,0,5.85-5.84,14.67,14.67,0,0,0-20.76,0l-7,7c-9.19,9.19-2.67,25,10.38,25A14.63,14.63,0,0,0,106,170.29a4.13,4.13,0,0,0-5.85-5.84Z"/>
      <path class="cls-2" d="M110,131.2a4.13,4.13,0,1,0,5.85,5.84,6.41,6.41,0,1,1,9.06,9.06l-7,7a6.39,6.39,0,0,1-9.06,0,4.14,4.14,0,0,0-5.85,5.85,14.68,14.68,0,0,0,20.76,0l7-7a14.58,14.58,0,0,0,4.29-10.38c0-13-15.86-19.56-25.05-10.37Z"/>
    </g>
  </g>
</svg>
