<svg xmlns="http://www.w3.org/2000/svg" width="3in" height="3in" viewBox="0 0 216 216">
  <defs>
    <style>
      .cls-1 {
        fill: #f19f4d;
      }
    </style>
  </defs>
  <g id="Layer_4" data-name="Layer 4">
    <g>
      <g>
        <path class="cls-1" d="M144.69,68.1H71.18A10.6,10.6,0,0,0,60.6,78.68v58.64A10.6,10.6,0,0,0,71.18,147.9h73.51a10.6,10.6,0,0,0,10.58-10.58V78.68A10.6,10.6,0,0,0,144.69,68.1Zm4.63,69.22a4.64,4.64,0,0,1-4.63,4.63H71.18a4.64,4.64,0,0,1-4.63-4.63V78.68a4.64,4.64,0,0,1,4.63-4.63h73.51a4.64,4.64,0,0,1,4.63,4.63v58.64Z"/>
        <circle class="cls-1" cx="74.23" cy="81.58" r="3.1"/>
        <circle class="cls-1" cx="83.33" cy="81.58" r="3.1"/>
        <circle class="cls-1" cx="92.42" cy="81.58" r="3.1"/>
      </g>
      <g>
        <path class="cls-1" d="M100.71,116.69a3,3,0,0,0,3.08-.06l14.85-9.14a3.05,3.05,0,0,0,1-4.19,3,3,0,0,0-1-1l-14.85-9.14a3.05,3.05,0,0,0-4.19,1,3,3,0,0,0-.45,1.6V114A3,3,0,0,0,100.71,116.69Zm4.53-15.48,6,3.69-6,3.68Z"/>
        <path class="cls-1" d="M129.61,122.08h-6.09a3.05,3.05,0,0,0-6.1,0H87a3,3,0,1,0,0,6.09h30.46a3,3,0,0,0,6.1,0h6.09a3,3,0,1,0,0-6.09Z"/>
      </g>
    </g>
  </g>
</svg>
