<svg id="Layer_1" data-name="Layer 1" xmlns="http://www.w3.org/2000/svg" width="3in" height="3in" viewBox="0 0 216 216">
  <defs>
    <style>
      .cls-1 {
        fill: #f19f4d;
      }
    </style>
  </defs>
  <path class="cls-1" d="M145,60.5H81.48A13.47,13.47,0,0,0,68,74V142A13.47,13.47,0,0,0,81.48,155.5H145a3,3,0,0,0,3-3v-89A3,3,0,0,0,145,60.5Zm-48.11,6V81.91l-1-1a3,3,0,0,0-4.28,0l-1,1V66.55Zm-15.37,0h3.1V89.21a3,3,0,0,0,3,3,3.06,3.06,0,0,0,2.14-.88l4-4,4,4a3,3,0,0,0,2.14.88h0a3,3,0,0,0,3-3V66.55h39v62H81.48a13.34,13.34,0,0,0-7.41,2.23V74A7.42,7.42,0,0,1,81.48,66.55Zm0,82.9a7.41,7.41,0,0,1,0-14.82h60.45V139H81.48a3,3,0,1,0,0,6.05h60.45v4.39Z"/>
</svg>
