<svg xmlns="http://www.w3.org/2000/svg" width="3in" height="4in" viewBox="0 0 216 288">
  <defs>
    <style>
      .cls-1 {
        fill: #f9f9f9;
      }

      .cls-2 {
        fill: #b5b5b5;
      }
    </style>
  </defs>
  <g id="Layer_3" data-name="Layer 3">
    <rect class="cls-1" width="216" height="288"/>
    <g>
      <path class="cls-2" d="M155.25,206.67c-4.1-1.75-7.83-4.18-11.77-6.23a1.58,1.58,0,0,0-1.24-.15,48,48,0,0,1-15,1.75c-12.62-.85-23.5-5.41-31.87-15.14a33.36,33.36,0,0,1-7.93-17.85c-.09-.63-.14-1.27-.17-1.91,0-.27-.1-.39-.37-.4a52.51,52.51,0,0,1-9-1.86,1.44,1.44,0,0,0-1,.29l-13.46,6.75a4.41,4.41,0,0,1-6.34-5.27q1.62-4.93,3.28-9.85a.76.76,0,0,0-.28-1A46.39,46.39,0,0,1,47.64,141.3a35.85,35.85,0,0,1-4.21-19.76c.8-11.06,5.73-20,13.92-27.32a50.09,50.09,0,0,1,25.26-12c14.1-2.42,27.42-.17,39.74,7.21a43.39,43.39,0,0,1,17.77,19.46,37.9,37.9,0,0,1,3.5,18,15.4,15.4,0,0,1-.29,2.35c-.1.48.08.59.46.71a43,43,0,0,1,10.13,4.5c7.28,4.44,12.94,10.34,16.29,18.29a31.61,31.61,0,0,1,2.32,9.29c0,.13-.08.32.14.39v.39c-.24.13-.18.27,0,.4v.66c-.28.51-.07,1.06-.12,1.59,0,.26-.14.55.12.78v1.06c-.21.07-.13.25-.15.39A30.15,30.15,0,0,1,169,178.9,45.09,45.09,0,0,1,158.11,192a1,1,0,0,0-.37,1.27q1.2,3.83,2.32,7.68a4.31,4.31,0,0,1-3.61,5.56c-.36,0-.74-.16-1.07.12ZM68.74,159.46c2.15-1.08,4.18-2.08,6.19-3.11a4.43,4.43,0,0,1,2.94-.43c1.4.28,2.78.62,4.17,1A37.08,37.08,0,0,0,87.45,158c.36,0,.54,0,.63-.43A34.6,34.6,0,0,1,97.3,141,42.73,42.73,0,0,1,117,129.57a50,50,0,0,1,15.6-1.65c.68,0,1.57.43,2,0s.29-1.38.31-2.11a29,29,0,0,0-1.25-9.16,32.51,32.51,0,0,0-11.41-16.55,45.52,45.52,0,0,0-23.69-9.67,46.94,46.94,0,0,0-23,2.89,38.28,38.28,0,0,0-18.38,14.4A28.43,28.43,0,0,0,57.09,140,42.52,42.52,0,0,0,68,150.75a4.4,4.4,0,0,1,1.8,5.53C69.45,157.29,69.12,158.31,68.74,159.46ZM148.5,193.2a2,2,0,0,0-.18-.87,4.43,4.43,0,0,1,1.67-5,43.37,43.37,0,0,0,9.8-10.07c4.61-6.8,5.43-14,2.17-21.58a29.18,29.18,0,0,0-12.05-13.42,37.79,37.79,0,0,0-30.67-4.23,32.53,32.53,0,0,0-18.18,12c-4.73,6.36-6.32,13.45-4.25,21.17,1.81,6.76,6,11.82,11.72,15.72a36.43,36.43,0,0,0,15.67,5.95,33.79,33.79,0,0,0,9.26.17A75.35,75.35,0,0,0,142,191.3a5,5,0,0,1,3.93.51C146.78,192.29,147.63,192.73,148.5,193.2Z"/>
      <path class="cls-2" d="M80.18,115.88c0,3.89-3.1,6.3-7.06,5.49A7,7,0,0,1,68.91,119a4.84,4.84,0,0,1,.14-6.43,7.54,7.54,0,0,1,7.55-2A5.23,5.23,0,0,1,80.18,115.88Z"/>
      <path class="cls-2" d="M106.06,110.21a5.35,5.35,0,0,1,5.37,3.48,6,6,0,0,1-1.66,6.66c-3,2.36-8.6.89-10-2.66a5.08,5.08,0,0,1,2.3-6.3A8,8,0,0,1,106.06,110.21Z"/>
      <path class="cls-2" d="M117.79,159.32a4.76,4.76,0,0,1-4.78-4.74,4.85,4.85,0,0,1,5.27-4.23,6,6,0,0,1,3.55,1.58,3.85,3.85,0,0,1-.12,5.91A6,6,0,0,1,117.79,159.32Z"/>
      <path class="cls-2" d="M142.58,159.32a4.52,4.52,0,1,1,.51-9,6,6,0,0,1,3.59,1.62,3.82,3.82,0,0,1,0,5.76A6,6,0,0,1,142.58,159.32Z"/>
    </g>
  </g>
</svg>
