<svg xmlns="http://www.w3.org/2000/svg" width="3in" height="3in" viewBox="0 0 216 216">
  <defs>
    <style>
      .cls-1 {
        fill: #f19f4d;
      }
    </style>
  </defs>
  <g id="Layer_3" data-name="Layer 3">
    <g>
      <path class="cls-1" d="M144.69,156.66c-3.18-1.35-6.08-3.24-9.14-4.83a1.25,1.25,0,0,0-1-.12,37.57,37.57,0,0,1-11.65,1.36c-9.79-.66-18.24-4.2-24.74-11.76A26,26,0,0,1,92,127.45c-.06-.49-.1-1-.13-1.48,0-.21-.08-.3-.29-.32a39.36,39.36,0,0,1-7-1.44c-.33-.08-.55.11-.8.23q-5.24,2.61-10.45,5.24a3.41,3.41,0,0,1-3.6-.13,3.38,3.38,0,0,1-1.33-4c.84-2.55,1.68-5.11,2.55-7.65a.59.59,0,0,0-.22-.8,36.1,36.1,0,0,1-9.69-11.24,27.86,27.86,0,0,1-3.27-15.34C58.48,82,62.31,75,68.67,69.35a38.87,38.87,0,0,1,19.61-9.29,43.88,43.88,0,0,1,30.87,5.61,33.59,33.59,0,0,1,13.79,15.11,29.43,29.43,0,0,1,2.72,14,11.17,11.17,0,0,1-.23,1.83c-.08.37.06.46.36.55a34.21,34.21,0,0,1,7.87,3.49,30.39,30.39,0,0,1,12.65,14.21,24.55,24.55,0,0,1,1.8,7.21c0,.1-.06.25.1.3v.31c-.18.1-.13.2,0,.31v.51c-.21.4-.05.82-.09,1.23,0,.21-.11.44.09.61v.82c-.16.06-.09.2-.11.31a23.46,23.46,0,0,1-2.7,8.67,34.92,34.92,0,0,1-8.49,10.2.79.79,0,0,0-.29,1q.93,3,1.8,6a3.34,3.34,0,0,1-2.8,4.32c-.28,0-.57-.12-.83.09ZM77.51,120c1.68-.83,3.25-1.61,4.81-2.41a3.44,3.44,0,0,1,2.29-.34c1.08.23,2.16.49,3.23.74a28.86,28.86,0,0,0,4.21.87c.27,0,.41,0,.49-.34a26.91,26.91,0,0,1,7.15-12.89A33.25,33.25,0,0,1,115,96.79a39,39,0,0,1,12.12-1.28c.53,0,1.22.34,1.54,0s.23-1.07.25-1.63a22.57,22.57,0,0,0-1-7.12,25.2,25.2,0,0,0-8.85-12.84,35.4,35.4,0,0,0-18.4-7.51,36.4,36.4,0,0,0-17.89,2.24A29.75,29.75,0,0,0,68.51,79.82a22.09,22.09,0,0,0,0,25.1,33,33,0,0,0,8.46,8.32,3.42,3.42,0,0,1,1.4,4.29C78.07,118.32,77.81,119.11,77.51,120Zm61.94,26.21a1.42,1.42,0,0,0-.14-.68,3.35,3.35,0,0,1-.09-1.72,3.49,3.49,0,0,1,1.39-2.14,33.59,33.59,0,0,0,7.61-7.81,16.58,16.58,0,0,0,1.68-16.76,22.64,22.64,0,0,0-9.36-10.42,29.3,29.3,0,0,0-23.81-3.28,25.25,25.25,0,0,0-14.12,9.32,18.45,18.45,0,0,0-3.3,16.44,21.32,21.32,0,0,0,9.1,12.2A28.32,28.32,0,0,0,120.58,146a26.23,26.23,0,0,0,7.19.13,57.89,57.89,0,0,0,6.66-1.39,3.88,3.88,0,0,1,3,.39C138.12,145.5,138.77,145.84,139.45,146.21Z"/>
      <path class="cls-1" d="M86.39,86.16c0,3-2.4,4.89-5.48,4.27a5.46,5.46,0,0,1-3.26-1.86,3.76,3.76,0,0,1,.11-5A5.85,5.85,0,0,1,83.62,82,4.05,4.05,0,0,1,86.39,86.16Z"/>
      <path class="cls-1" d="M106.5,81.76a4.16,4.16,0,0,1,4.16,2.71,4.69,4.69,0,0,1-1.28,5.17c-2.36,1.83-6.68.69-7.81-2.07a4,4,0,0,1,1.79-4.89A6.16,6.16,0,0,1,106.5,81.76Z"/>
      <path class="cls-1" d="M115.6,119.9a3.7,3.7,0,0,1-3.71-3.68,3.77,3.77,0,0,1,4.1-3.29,4.66,4.66,0,0,1,2.75,1.23,3,3,0,0,1-.09,4.59A4.68,4.68,0,0,1,115.6,119.9Z"/>
      <path class="cls-1" d="M134.85,119.9a3.71,3.71,0,0,1-3.67-3.61,3.75,3.75,0,0,1,4.07-3.36,4.66,4.66,0,0,1,2.79,1.26,3,3,0,0,1,0,4.47A4.67,4.67,0,0,1,134.85,119.9Z"/>
    </g>
  </g>
</svg>
