<svg id="Layer_1" data-name="Layer 1" xmlns="http://www.w3.org/2000/svg" width="3in" height="4in" viewBox="0 0 216 288">
  <defs>
    <style>
      .cls-1 {
        fill: #f9f9f9;
      }

      .cls-2 {
        fill: #b5b5b5;
      }
    </style>
  </defs>
  <rect class="cls-1" width="216" height="288"/>
  <path class="cls-2" d="M157.34,80.59H72.59a18,18,0,0,0-18,18v90.88a18,18,0,0,0,18,18h84.75a4,4,0,0,0,4-4V84.62A4,4,0,0,0,157.34,80.59ZM93.12,88.66v20.51l-1.3-1.3a4,4,0,0,0-5.71,0l-1.3,1.3V88.66Zm-20.53,0h4.15v30.25a4,4,0,0,0,6.9,2.86L89,116.43l5.33,5.34A4,4,0,0,0,97.15,123h0a4,4,0,0,0,4-4V88.66H153.3v82.81H72.59a17.86,17.86,0,0,0-9.89,3V98.56A9.91,9.91,0,0,1,72.59,88.66Zm0,110.68a9.9,9.9,0,0,1,0-19.79H153.3v5.85H72.59a4,4,0,0,0,0,8.08H153.3v5.86Z"/>
</svg>
