<svg xmlns="http://www.w3.org/2000/svg" width="3in" height="4in" viewBox="0 0 216 288">
  <defs>
    <style>
      .cls-1 {
        fill: #f9f9f9;
      }

      .cls-2 {
        fill: #b5b5b5;
      }
    </style>
  </defs>
  <g id="Layer_4" data-name="Layer 4">
    <rect class="cls-1" width="216" height="288"/>
    <g>
      <path class="cls-2" d="M44.87,175.2c-.4-4.69-.57-9.42-1.23-14.07-2.08-14.45-4.35-28.87-6.55-43.3,0-.22,0-.46-.07-1l11.06-4.08c.23,13.23-.75,26.21,1.32,38.57,5.66.76,10.92,1.17,16,2.27a34.25,34.25,0,0,1,9.35,3.78c3.19,1.77,3.85,4.8,1.46,7.55a23.25,23.25,0,0,1-7.2,5.46c-6.18,3-13,3.79-19.75,4.34-1,.08-2,.28-3,.43Zm20.57-12.72-10.78-4.23,1.6,10.94Z"/>
      <path class="cls-2" d="M116.43,175.2a337.62,337.62,0,0,0-7.34-55.76c-.42-2-.07-2.81,1.88-3.38,2.93-.87,5.76-2,8.84-3.16,0,6.13-.15,12,0,17.88.2,6.27.75,12.53,1.08,18.8.11,2,.93,2.61,3,2.48a43.69,43.69,0,0,1,18.72,3.26,21.32,21.32,0,0,1,3.78,1.92c3.19,2,4.06,5.24,1.51,8a20.14,20.14,0,0,1-8,5.56c-5.81,1.84-11.93,2.72-17.92,4-.91.19-1.84.3-2.76.45Zm11.56-6,9.27-6.76-10.79-4.17C127,162.24,127.47,165.47,128,169.2Z"/>
      <path class="cls-2" d="M179,171.42l-6,.42c-.79-8.64-1.56-17.11-2.35-25.7a21.33,21.33,0,0,1,2.12-.32c1.57-.08,3.43-.63,4.62,0,.95.52,1.08,2.53,1.58,3.87Z"/>
      <path class="cls-2" d="M84.93,120.75a3.76,3.76,0,0,1,.44-.27c6.9-1.39,7-1.31,7.5,5.48q1.48,19.26,3,38.51c.08,1.09.11,2.18.17,3.38-.64.12-1.16.28-1.68.32-3.21.18-3.11.12-3.53-3.09-1.84-14.16-3.77-28.31-5.67-42.45C85.11,122,85,121.4,84.93,120.75Z"/>
      <path class="cls-2" d="M156.74,120.75a2.58,2.58,0,0,1,.53-.31c6.8-1.4,7-1.13,7.49,5.65.92,13.4,2,26.79,3,40.18,0,.46.05.92.1,1.72-1,.07-1.9.11-2.8.19-1.49.13-2.17-.31-2.35-2Q161,150.58,159.07,135C158.46,130.24,157.52,125.48,156.74,120.75Z"/>
      <path class="cls-2" d="M148.52,145.43c2.28-.35,4.13-.65,6-.92,1.2-.18,2,.23,2.15,1.53.88,7.93,1.75,15.86,2.63,23.93l-5.9.91C151.78,162.51,150.19,154.18,148.52,145.43Z"/>
      <path class="cls-2" d="M76.8,145.65c7.48-2.21,8-1.93,8.74,5.17.61,5.7,1,11.43,1.64,17.13.2,1.75-.21,2.48-2,2.54-1.09,0-2.17.24-3.61.42C80,162.47,78.41,154.12,76.8,145.65Z"/>
      <path class="cls-2" d="M107,171.48l-5.79.37c-.8-8.66-1.58-17.13-2.36-25.54a5.28,5.28,0,0,1,1-.37c7.08-1,7.12-1,7.17,6C107.05,158.39,107,164.81,107,171.48Z"/>
      <path class="cls-2" d="M106.26,142.38l-3.36-.28v-9.76l3.36.28Z"/>
      <path class="cls-2" d="M152.14,141l-1.1-9.45,3.74-.18c.3,3.26.57,6.34.87,9.63Z"/>
      <path class="cls-2" d="M83.83,141.15H80.39l-1-9.44c3.69-.57,3.69-.57,3.93,2.76C83.46,136.63,83.64,138.8,83.83,141.15Z"/>
      <path class="cls-2" d="M178,142.41l-3.33-.32v-9.68l3.33.17Z"/>
      <path class="cls-2" d="M149.49,131.71l1.48,9.7-2.85.5c-.67-3.11-1.32-6.12-2-9.31Z"/>
      <path class="cls-2" d="M74.34,132.55l3.34-.8,1.46,9.76-2.9.33Z"/>
      <path class="cls-2" d="M101.54,142.2l-2.88.19c-.33-3.21-.63-6.21-.93-9.17,3.15-1.19,3.37-1.06,3.48,1.9C101.3,137.37,101.42,139.62,101.54,142.2Z"/>
      <path class="cls-2" d="M169.38,133l3.4-.47c.21,3.22.41,6.3.62,9.6l-2.87.41C170.14,139.26,169.77,136.21,169.38,133Z"/>
    </g>
  </g>
</svg>
